<svg id="Layer_1" enable-background="new 0 0 512.007 512.007" height="512" viewBox="0 0 512.007 512.007" width="512" xmlns="http://www.w3.org/2000/svg"><g><g><path clip-rule="evenodd" d="m54.809 53.057 135.694 61.689-152.354 115.446-22.683-147.322c-1.609-10.454 2.355-20.245 10.786-26.633 8.43-6.389 18.928-7.558 28.557-3.18z" fill="#ffdecf" fill-rule="evenodd"/></g><g><path d="m38.148 245.193c-1.901 0-3.812-.361-5.629-1.097-4.898-1.983-8.391-6.398-9.195-11.62l-22.684-147.324c-2.446-15.886 3.742-31.164 16.552-40.87 12.811-9.708 29.193-11.53 43.825-4.88l135.694 61.689c4.81 2.188 8.115 6.744 8.7 11.995.585 5.252-1.637 10.424-5.849 13.615l-152.354 115.447c-2.648 2.008-5.839 3.045-9.06 3.045zm4.886-179.756c-2.695 0-5.305.922-7.724 2.755-4.059 3.076-5.795 7.361-5.02 12.396l18.855 122.452 112.244-85.053-112.788-51.275c-1.873-.851-3.739-1.275-5.567-1.275z" fill="#f6efea"/></g><g><path clip-rule="evenodd" d="m457.308 53.057-135.695 61.689 152.355 115.446 22.684-147.322c1.61-10.454-2.355-20.245-10.785-26.633-8.431-6.389-18.93-7.558-28.559-3.18z" fill="#ffcdbe" fill-rule="evenodd"/></g><g><path d="m473.969 245.193c-3.221 0-6.412-1.037-9.061-3.045l-152.354-115.447c-4.212-3.191-6.434-8.363-5.849-13.615.584-5.251 3.89-9.808 8.7-11.995l135.695-61.689c14.632-6.651 31.016-4.827 43.826 4.88 12.809 9.706 18.997 24.984 16.551 40.87l-22.684 147.324c-.804 5.222-4.297 9.637-9.195 11.62-1.817.735-3.728 1.097-5.629 1.097zm-123.241-127.205 112.244 85.053 18.854-122.453c.775-5.034-.961-9.319-5.02-12.396-4.059-3.076-8.654-3.588-13.29-1.479z" fill="#eee1dc"/></g><g><g><path d="m256.004 476.557c-44.778 0-104.434-25.926-155.689-67.659-56.123-45.698-88.312-99.009-88.312-146.261 0-50.228 25.974-97.149 73.138-132.122 45.819-33.977 106.499-52.688 170.863-52.688s125.043 18.711 170.862 52.688c47.164 34.973 73.138 81.895 73.138 132.122 0 47.252-32.188 100.563-88.312 146.261-51.254 41.733-110.911 67.659-155.688 67.659z" fill="#fff4f4"/></g></g><g fill="#f6efea"><path d="m426.865 130.515c-45.819-33.977-106.498-52.688-170.862-52.688v398.729c44.777 0 104.434-25.926 155.688-67.659 56.123-45.698 88.312-99.009 88.312-146.261.001-50.226-25.973-97.148-73.138-132.121z"/><path d="m148.928 362.193h-133.924c-8.284 0-15-6.716-15-15s6.716-15 15-15h133.924c8.284 0 15 6.716 15 15s-6.716 15-15 15z"/><path d="m14.994 452.197c-6.615 0-12.67-4.408-14.474-11.101-2.156-7.998 2.581-16.23 10.579-18.387l144.787-39.026c8-2.153 16.23 2.58 18.387 10.579s-2.58 16.231-10.579 18.388l-144.787 39.026c-1.307.352-2.621.521-3.913.521z"/><path d="m286.004 375.318c-8.271 0-15-6.729-15-15v-14.625c0-8.284-6.716-15-15-15s-15 6.716-15 15v14.625c0 8.271-6.729 15-15 15-8.284 0-15 6.716-15 15s6.716 15 15 15c11.517 0 22.032-4.353 30-11.495 7.968 7.142 18.483 11.495 30 11.495 8.284 0 15-6.716 15-15s-6.716-15-15-15z"/></g><path d="m286.004 375.318c-8.271 0-15-6.729-15-15v-14.625c0-8.284-6.716-15-15-15v63.13c7.968 7.141 18.483 11.495 30 11.495 8.284 0 15-6.716 15-15s-6.716-15-15-15z" fill="#eee1dc"/><path d="m497.004 362.193h-133.925c-8.284 0-15-6.716-15-15s6.716-15 15-15h133.924c8.284 0 15 6.716 15 15s-6.715 15-14.999 15z" fill="#eee1dc"/><path d="m497.013 452.197c-1.292 0-2.605-.169-3.913-.521l-144.787-39.026c-7.999-2.156-12.735-10.389-10.579-18.388s10.385-12.736 18.387-10.579l144.787 39.026c7.999 2.156 12.735 10.389 10.579 18.387-1.804 6.691-7.86 11.101-14.474 11.101z" fill="#eee1dc"/><circle clip-rule="evenodd" cx="168.92" cy="229.192" fill="#392e6e" fill-rule="evenodd" r="30"/><ellipse clip-rule="evenodd" cx="343.087" cy="229.192" fill="#2b2256" fill-rule="evenodd" rx="30" ry="30" transform="matrix(.383 -.924 .924 .383 .048 458.456)"/><path d="m256.004 363.068c-8.707 0-22.328-9.722-26.295-12.701-12.08-9.073-18.205-16.976-18.205-23.487 0-15.837 29.468-22.688 44.5-22.688s44.5 6.851 44.5 22.688c0 6.512-6.125 14.414-18.205 23.487-3.968 2.979-17.589 12.701-26.295 12.701zm29.709-35.2h.01z" fill="#392e6e"/><path d="m256.004 304.192v58.876c8.706 0 22.328-9.722 26.295-12.701 12.08-9.073 18.205-16.976 18.205-23.487 0-15.838-29.468-22.688-44.5-22.688z" fill="#2b2256"/></g></svg>